<svg xmlns="http://www.w3.org/2000/svg" xmlns:xlink="http://www.w3.org/1999/xlink" width="75" zoomAndPan="magnify" viewBox="0 0 56.25 44.999999" height="60" preserveAspectRatio="xMidYMid meet" version="1.0"><defs><clipPath id="86c8eacbc1"><path d="M 15.800781 3.828125 L 52.777344 3.828125 L 52.777344 44.691406 L 15.800781 44.691406 Z M 15.800781 3.828125 " clip-rule="nonzero"/></clipPath><clipPath id="02b5a705bc"><path d="M 2.453125 0.296875 L 24 0.296875 L 24 12 L 2.453125 12 Z M 2.453125 0.296875 " clip-rule="nonzero"/></clipPath></defs><g clip-path="url(#86c8eacbc1)"><path fill="#000000" d="M 23.695312 11.695312 C 23.285156 12.042969 22.675781 11.988281 22.332031 11.578125 C 21.988281 11.164062 22.039062 10.550781 22.449219 10.203125 C 22.859375 9.859375 23.472656 9.910156 23.816406 10.320312 C 24.160156 10.734375 24.105469 11.351562 23.695312 11.695312 Z M 24.84375 3.847656 L 15.808594 11.480469 L 17.59375 19.671875 L 37.8125 44.691406 L 52.777344 32.046875 L 32.558594 7.027344 L 24.84375 3.847656 " fill-opacity="1" fill-rule="nonzero"/></g><path fill="#ffb262" d="M 23.695312 11.695312 C 23.285156 12.042969 22.675781 11.988281 22.332031 11.578125 C 21.988281 11.164062 22.039062 10.550781 22.449219 10.203125 C 22.859375 9.859375 23.472656 9.910156 23.816406 10.320312 C 24.160156 10.734375 24.105469 11.351562 23.695312 11.695312 Z M 21.824219 9.457031 C 21.003906 10.148438 20.894531 11.378906 21.585938 12.207031 C 22.277344 13.03125 23.5 13.136719 24.320312 12.445312 C 25.140625 11.75 25.25 10.519531 24.558594 9.695312 C 23.867188 8.867188 22.644531 8.761719 21.824219 9.457031 " fill-opacity="1" fill-rule="nonzero"/><g clip-path="url(#02b5a705bc)"><path fill="#ffb262" d="M 2.453125 1.535156 L 2.628906 2.085938 C 4.324219 1.699219 6.246094 1.941406 8.679688 2.847656 C 12.589844 4.304688 16.074219 6.605469 18.753906 9.503906 L 18.925781 9.695312 C 19.707031 10.558594 21.160156 12.167969 23.265625 11.050781 C 23.386719 10.984375 23.449219 10.863281 23.429688 10.746094 C 23.421875 10.710938 23.410156 10.679688 23.390625 10.648438 C 23.304688 10.511719 23.101562 10.46875 22.945312 10.554688 C 21.460938 11.34375 20.441406 10.421875 19.445312 9.320312 L 19.265625 9.125 C 16.527344 6.15625 12.960938 3.800781 8.953125 2.308594 C 7.820312 1.886719 6.789062 1.605469 5.828125 1.453125 C 7.976562 1.34375 10.105469 1.796875 12.261719 2.335938 C 13.890625 2.742188 19.542969 5.410156 21.074219 7.03125 C 21.171875 6.945312 21.492188 6.671875 21.609375 6.578125 C 19.789062 4.714844 14.027344 2.164062 12.460938 1.777344 C 9.144531 0.949219 5.882812 0.308594 2.453125 1.535156 " fill-opacity="1" fill-rule="nonzero"/></g></svg>