<?xml version="1.0" standalone="no"?>
<!DOCTYPE svg PUBLIC "-//W3C//DTD SVG 20010904//EN"
 "http://www.w3.org/TR/2001/REC-SVG-20010904/DTD/svg10.dtd">
<svg version="1.0" xmlns="http://www.w3.org/2000/svg"
 width="500.000000pt" height="500.000000pt" viewBox="0 0 500.000000 500.000000"
 preserveAspectRatio="xMidYMid meet">

<g transform="translate(0.000000,500.000000) scale(0.100000,-0.100000)"
fill="#000000" stroke="none">
<path d="M2259 4145 c-360 -58 -651 -201 -898 -440 -265 -256 -416 -527 -492
-885 -20 -89 -23 -136 -23 -310 0 -174 3 -222 22 -319 106 -525 443 -963 916
-1187 204 -96 389 -144 581 -149 l120 -4 -110 9 c-409 31 -778 207 -1066 508
-262 273 -410 597 -450 987 -81 784 456 1545 1226 1739 162 41 240 50 425 49
150 0 194 -4 305 -27 172 -36 254 -64 410 -140 170 -84 284 -165 426 -306 131
-131 202 -222 283 -365 140 -248 206 -508 207 -810 0 -534 -254 -1023 -697
-1341 -96 -69 -286 -167 -399 -207 -112 -40 -300 -78 -420 -87 l-110 -7 82 -2
c106 -1 282 29 414 72 357 117 657 347 870 664 84 127 138 238 189 391 51 154
70 250 79 400 19 325 -33 594 -170 867 -79 160 -171 287 -304 421 -240 242
-505 388 -836 460 -103 22 -155 27 -309 30 -127 2 -212 -1 -271 -11z"/>
<path d="M2403 3919 c-25 -9 -53 -47 -53 -72 0 -10 11 -29 25 -42 49 -50 125
-20 125 48 0 51 -49 84 -97 66z m55 -21 c27 -27 5 -108 -29 -108 -17 0 -49 40
-49 62 0 44 50 74 78 46z"/>
<path d="M2630 3909 c0 -5 9 -9 20 -9 19 0 20 -4 14 -65 -4 -42 -3 -65 4 -65
13 0 22 24 22 60 0 42 10 60 34 60 16 1 18 2 6 9 -23 13 -100 20 -100 10z"/>
<path d="M2128 3875 c-5 -5 20 -123 27 -133 2 -2 23 2 49 9 53 13 63 31 11 19
-40 -9 -39 -11 -55 58 -11 49 -19 60 -32 47z"/>
<path d="M2856 3808 c-18 -65 -8 -106 13 -48 9 27 14 30 33 25 35 -11 40 -19
29 -48 -8 -21 -8 -27 3 -27 8 0 22 23 32 53 9 28 19 58 22 65 2 6 -3 12 -12
12 -9 0 -16 -6 -16 -12 0 -28 -17 -39 -44 -32 -25 6 -27 10 -21 40 4 25 2 34
-8 34 -8 0 -20 -24 -31 -62z"/>
<path d="M1915 3795 c-14 -13 -25 -36 -25 -50 0 -33 42 -75 75 -75 26 0 83 46
71 58 -4 3 -13 -4 -22 -16 -30 -43 -94 -16 -94 39 0 33 17 49 53 49 16 0 26 4
22 10 -11 18 -56 10 -80 -15z"/>
<path d="M3097 3724 c-29 -59 -33 -74 -17 -74 5 0 23 27 40 59 22 44 26 60 16
64 -8 3 -23 -15 -39 -49z"/>
<path d="M3236 3640 c-21 -29 -35 -57 -33 -63 2 -7 17 8 33 33 l29 44 5 -64
c3 -35 10 -65 17 -67 6 -2 24 15 40 39 42 61 45 68 34 68 -5 0 -20 -17 -33
-37 l-23 -38 -5 64 c-3 36 -10 66 -16 68 -6 2 -28 -19 -48 -47z"/>
<path d="M1577 3585 c-21 -18 -34 -36 -29 -39 5 -3 17 3 27 14 25 27 35 16 35
-38 0 -73 11 -81 59 -42 46 37 47 56 2 22 l-29 -21 -7 64 c-4 36 -10 67 -14
69 -3 2 -23 -11 -44 -29z"/>
<path d="M2285 3570 c-417 -88 -733 -388 -847 -803 -20 -71 -23 -105 -22 -262
0 -162 3 -190 26 -277 167 -616 816 -965 1407 -756 163 57 274 124 393 236
402 378 459 975 138 1431 -241 340 -688 516 -1095 431z m480 -24 c197 -51 408
-180 538 -329 270 -309 346 -737 197 -1111 -60 -151 -138 -264 -269 -389 -169
-161 -367 -253 -610 -284 -115 -15 -135 -15 -252 0 -253 33 -455 131 -629 305
-225 226 -332 502 -317 821 22 476 365 887 827 989 52 12 104 24 115 26 11 3
83 3 160 1 110 -2 162 -9 240 -29z"/>
<path d="M2016 3079 c18 -20 19 -43 22 -378 3 -372 1 -411 -24 -436 -14 -13
-8 -15 55 -15 l70 0 -15 28 c-9 18 -14 59 -14 125 l0 98 56 70 c31 38 60 69
64 69 4 0 38 -46 77 -102 l69 -103 -22 -55 c-101 -247 57 -524 325 -571 123
-22 246 26 319 124 37 52 25 51 -32 0 -102 -94 -251 -118 -364 -58 -59 31 -80
49 -125 108 -54 71 -81 169 -74 271 3 44 8 89 13 100 6 16 10 13 30 -20 13
-22 24 -49 24 -61 0 -22 4 -23 73 -23 69 1 71 1 45 15 -15 8 -51 49 -82 91
l-55 77 29 42 c63 92 166 141 280 133 113 -8 200 -68 200 -137 0 -20 4 -19 45
16 l45 38 -22 17 c-50 39 -165 89 -230 99 -120 19 -246 -20 -336 -105 l-49
-46 -72 105 -72 105 131 165 c73 91 150 181 173 200 l41 35 -46 0 c-42 0 -46
-2 -51 -27 -3 -16 -95 -140 -204 -277 l-198 -248 -3 246 c-2 206 0 251 13 276
l16 30 -72 0 -72 0 19 -21z"/>
<path d="M3436 3489 c-39 -31 -36 -77 8 -116 l35 -30 23 24 c17 18 20 28 12
40 -17 27 -37 29 -29 4 8 -26 -18 -39 -40 -21 -35 29 -4 90 47 90 28 0 43 -14
51 -45 4 -16 5 -14 6 7 1 29 -38 68 -69 68 -10 0 -29 -9 -44 -21z"/>
<path d="M1410 3420 c-43 -43 -12 -123 48 -123 17 0 38 6 48 13 23 20 37 61
24 74 -7 7 -10 2 -10 -15 0 -47 -44 -64 -88 -33 -30 21 -28 58 4 83 20 15 22
21 10 21 -9 0 -25 -9 -36 -20z"/>
<path d="M1255 3190 c-3 -6 13 -34 36 -63 24 -28 44 -54 46 -56 2 -2 6 -1 10
3 4 3 2 11 -5 18 -16 16 13 68 38 68 25 0 35 17 13 23 -46 13 -131 18 -138 7z
m85 -27 c0 -5 -5 -15 -10 -23 -8 -13 -13 -12 -32 8 l-22 22 32 0 c18 0 32 -3
32 -7z"/>
<path d="M3700 3163 c-32 -12 -50 -37 -50 -70 0 -34 28 -73 53 -73 6 0 3 8 -9
18 -34 28 -37 50 -9 78 41 41 82 29 95 -27 l8 -34 1 31 c2 50 -47 92 -89 77z"/>
<path d="M1171 2983 c-11 -10 -24 -32 -27 -49 -6 -31 -5 -32 47 -49 30 -10 60
-20 67 -23 6 -2 12 3 12 11 0 8 -9 17 -20 20 -31 8 -24 35 12 45 44 11 52 37
8 27 -26 -6 -35 -3 -46 14 -18 26 -26 26 -53 4z m33 -19 c17 -6 22 -39 8 -48
-14 -8 -52 5 -52 18 0 7 5 17 12 24 14 14 12 14 32 6z"/>
<path d="M3760 2910 c-28 -28 -26 -81 3 -108 48 -45 117 -14 117 51 0 65 -76
101 -120 57z m100 -30 c7 -14 7 -26 1 -39 -25 -46 -111 -40 -111 8 0 46 88 72
110 31z"/>
<path d="M1100 2752 c0 -5 11 -19 25 -32 31 -29 27 -45 -10 -45 -15 0 -30 -5
-32 -11 -2 -7 23 -15 67 -21 54 -7 70 -6 70 3 0 7 -13 15 -30 19 -39 8 -38 20
3 41 58 30 61 55 3 28 -35 -17 -37 -17 -66 4 -17 13 -30 19 -30 14z"/>
<path d="M3786 2651 c-4 -7 -5 -15 -2 -18 9 -9 19 4 14 18 -4 11 -6 11 -12 0z"/>
<path d="M1096 2524 c-29 -28 10 -71 47 -52 20 10 22 39 5 56 -16 16 -33 15
-52 -4z"/>
<path d="M3852 2528 c-30 -30 3 -77 40 -57 30 16 16 69 -17 69 -6 0 -16 -5
-23 -12z"/>
<path d="M1200 2374 c0 -8 5 -12 10 -9 6 3 10 10 10 16 0 5 -4 9 -10 9 -5 0
-10 -7 -10 -16z"/>
<path d="M3780 2376 c0 -8 11 -16 27 -18 38 -4 39 -23 3 -38 -17 -7 -35 -21
-41 -31 -12 -24 -4 -23 41 1 l35 18 28 -26 c15 -14 27 -21 27 -16 0 6 -11 21
-25 34 -35 33 -33 52 7 48 49 -5 46 19 -4 27 -24 3 -55 8 -70 11 -21 4 -28 2
-28 -10z"/>
<path d="M1140 2220 c-28 -28 -26 -81 3 -108 48 -45 117 -14 117 51 0 65 -76
101 -120 57z m102 -35 c9 -21 8 -28 -7 -45 -40 -45 -122 -11 -95 39 21 39 85
43 102 6z"/>
<path d="M3730 2146 c0 -7 9 -16 20 -19 31 -8 24 -33 -12 -43 -44 -13 -50 -36
-8 -27 25 4 35 2 42 -10 12 -23 55 -21 68 2 35 66 34 68 -32 90 -73 25 -78 25
-78 7z m94 -42 c22 -8 20 -31 -3 -43 -23 -13 -47 10 -37 34 6 16 16 18 40 9z"/>
<path d="M1302 1989 c10 -5 23 -19 29 -30 13 -25 -9 -64 -41 -74 -29 -9 -68
19 -73 52 -4 26 -4 26 -6 -4 -2 -62 64 -94 117 -57 42 29 20 125 -29 124 -10
-1 -9 -3 3 -11z"/>
<path d="M3650 1941 c0 -6 4 -13 10 -16 16 -10 -18 -65 -40 -65 -25 0 -35 -17
-13 -23 45 -13 132 -18 138 -8 3 6 -13 35 -37 65 -42 53 -58 66 -58 47z m55
-71 c18 -20 17 -20 -13 -20 -34 0 -35 1 -26 24 8 21 17 20 39 -4z"/>
<path d="M3510 1717 c-29 -15 -55 -62 -43 -80 5 -8 9 -2 13 17 3 16 13 34 22
40 26 16 71 -4 83 -38 8 -25 6 -31 -18 -52 -19 -16 -23 -24 -13 -24 26 0 56
38 56 69 0 55 -54 91 -100 68z"/>
<path d="M1498 1653 c-17 -18 -20 -28 -12 -40 17 -27 37 -29 29 -4 -8 26 18
39 40 21 35 -29 4 -90 -47 -90 -28 0 -43 14 -51 45 -4 16 -5 14 -6 -7 -1 -29
38 -68 69 -68 10 0 29 9 44 21 39 31 36 77 -8 116 l-35 30 -23 -24z"/>
<path d="M3330 1540 c-48 -41 -47 -54 0 -20 l28 20 7 -65 c5 -40 12 -65 19
-65 7 0 27 16 46 35 19 19 29 35 24 35 -6 0 -19 -9 -29 -20 -25 -28 -35 -16
-35 43 0 78 -9 83 -60 37z"/>
<path d="M1673 1458 c-42 -61 -45 -68 -34 -68 5 0 20 17 33 38 l23 37 5 -64
c3 -36 10 -66 16 -68 14 -5 87 94 81 110 -2 7 -17 -8 -33 -33 l-29 -44 -5 64
c-3 35 -10 65 -17 67 -6 2 -24 -15 -40 -39z"/>
<path d="M1882 1315 c-23 -46 -28 -65 -18 -68 8 -3 24 19 44 58 23 46 28 65
18 68 -8 3 -24 -19 -44 -58z"/>
<path d="M2983 1324 c-14 -14 -22 -28 -19 -32 4 -3 13 4 22 16 30 43 94 16 94
-39 0 -33 -17 -49 -55 -49 -26 -1 -28 -2 -12 -11 38 -22 97 26 97 77 0 24 -47
64 -75 64 -14 0 -37 -11 -52 -26z"/>
<path d="M2034 1258 c-9 -29 -19 -59 -22 -65 -2 -7 3 -13 12 -13 9 0 16 6 16
13 0 27 17 38 44 31 25 -6 27 -10 21 -40 -4 -25 -2 -34 8 -34 17 0 52 119 39
132 -6 6 -14 -3 -20 -22 -10 -27 -14 -30 -39 -24 -37 9 -37 8 -25 43 9 25 8
31 -3 31 -7 0 -21 -23 -31 -52z"/>
<path d="M2783 1269 c-44 -13 -42 -21 4 -17 l37 3 14 -57 c9 -38 18 -55 26
-52 10 4 10 18 -2 70 -17 68 -19 70 -79 53z"/>
<path d="M2316 1234 c-3 -9 -6 -28 -6 -44 0 -42 -10 -60 -34 -60 -16 -1 -18
-2 -6 -9 23 -13 100 -20 100 -10 0 5 -9 9 -20 9 -19 0 -20 4 -14 65 4 42 3 65
-4 65 -5 0 -13 -7 -16 -16z"/>
<path d="M2520 1220 c-45 -45 -11 -120 54 -120 37 0 76 36 76 70 0 10 -9 29
-21 44 -26 33 -79 36 -109 6z m90 -22 c13 -25 13 -31 0 -55 -19 -33 -42 -40
-64 -18 -19 19 -21 76 -4 93 20 20 51 10 68 -20z"/>
</g>
</svg>
